<svg id="Layer_1" data-name="Layer 1" xmlns="http://www.w3.org/2000/svg" xmlns:xlink="http://www.w3.org/1999/xlink" viewBox="0 0 1059.25926 1053.43273"><defs><linearGradient id="linear-gradient" x1="132.00781" y1="256.10228" x2="821.98821" y2="946.08268" gradientTransform="matrix(1, 0, 0, -1, 0, 1081.77954)" gradientUnits="userSpaceOnUse"><stop offset="0" stop-color="#5dc3e4"/><stop offset="0.03354" stop-color="#5abce0"/><stop offset="0.2209" stop-color="#4b99cb"/><stop offset="0.4112" stop-color="#407ebb"/><stop offset="0.60322" stop-color="#386aaf"/><stop offset="0.79805" stop-color="#335fa8"/><stop offset="1" stop-color="#315ba6"/></linearGradient><linearGradient id="linear-gradient-2" x1="585.58335" y1="499.10374" x2="930.13681" y2="154.55005" xlink:href="#linear-gradient"/><linearGradient id="linear-gradient-3" x1="413.69285" y1="579.96857" x2="584.03222" y2="579.96857" gradientTransform="matrix(1, 0, 0, -1, -10.37037, 1068.49591)" gradientUnits="userSpaceOnUse"><stop offset="0" stop-color="#315ba6"/><stop offset="0.30849" stop-color="#325da7"/><stop offset="0.48949" stop-color="#3666ac"/><stop offset="0.63758" stop-color="#3c74b5"/><stop offset="0.76783" stop-color="#4488c1"/><stop offset="0.88523" stop-color="#4fa2d0"/><stop offset="0.99395" stop-color="#5cc1e3"/><stop offset="1" stop-color="#5dc3e4"/></linearGradient></defs><path d="M577.54914,787.34968C419.823,830.80526,256.733,738.17075,213.27734,580.4446s49.17893-320.81617,206.90508-364.27181,320.81617,49.17893,364.27187,206.90508a296.22967,296.22967,0,0,1,.6879,154.82566l183.5127,57.14278c73.61241-259.46837-77.05352-529.48369-336.52182-603.09615C372.66471-41.66231,102.64935,109.00365,29.03689,368.472s77.05353,529.48375,336.52186,603.09615a488.34966,488.34966,0,0,0,269.12574-.73133Z" transform="translate(-10.37037 -13.28364)" style="fill:url(#linear-gradient)"/><path d="M573.35678,638.59071l145.57044,393.47378a53.04171,53.04171,0,0,0,96.95886,5.77028l68.34706-133.48014A53.04072,53.04072,0,0,1,907.271,881.31644l133.48013-68.34681a53.04152,53.04152,0,0,0-5.77-96.95867L641.5074,570.4402a53.04156,53.04156,0,0,0-68.15062,68.15051Z" transform="translate(-10.37037 -13.28364)" style="fill:url(#linear-gradient-2)"/><circle cx="488.49217" cy="488.52733" r="85.16969" style="fill:url(#linear-gradient-3)"/></svg>